<?xml version="1.0" standalone="no"?><!DOCTYPE svg PUBLIC "-//W3C//DTD SVG 1.1//EN" "http://www.w3.org/Graphics/SVG/1.1/DTD/svg11.dtd"><svg t="1681301408327" class="icon" viewBox="0 0 1024 1024" version="1.1" xmlns="http://www.w3.org/2000/svg" p-id="2495" xmlns:xlink="http://www.w3.org/1999/xlink" width="64" height="64"><path d="M728.5504 439.8208s-48.128-24.064-48.128-48.128c0-48.128 48.128-24.064 96.2432-96.2432 0 0-24.064-168.4352-192.4864-168.4352-144.3712 0-192.4864 120.3072-192.4864 192.4864 0 120.3072 72.1792 120.3072 72.1792 192.4864 0 24.064-24.064 48.128-96.2432 48.128-120.3072 0-168.4352-120.3072-168.4352-120.3072s-72.1792 48.128-72.1792 168.4352c0 144.3712 96.2432 288.7424 312.8064 288.7424h120.3072c72.1792 0 216.5504-96.2432 216.5504-216.5504s-72.192-120.3072-72.192-168.4352 24.064-72.1792 24.064-72.1792z" fill="#FFCC66" p-id="2496"></path><path d="M848.8576 319.5136c-48.128 0-72.1792-24.064-72.1792-24.064-48.128 72.1792-96.2432 48.128-96.2432 96.2432 0 24.064 48.128 48.128 48.128 48.128 48.128 0 168.4352-72.1792 168.4352-96.2432s-24.0768-24.064-48.1408-24.064z" fill="#FF8833" p-id="2497"></path><path d="M704.4864 271.3856m-24.064 0a24.064 24.064 0 1 0 48.128 0 24.064 24.064 0 1 0-48.128 0Z" fill="#666666" p-id="2498"></path></svg>